<svg width="479" height="190" viewBox="0 0 479 190" fill="none" xmlns="http://www.w3.org/2000/svg">
<g clip-path="url(#clip0_7211_414)">
<mask id="mask0_7211_414" style="mask-type:luminance" maskUnits="userSpaceOnUse" x="0" y="0" width="479" height="190">
<path d="M478.815 0H0V189.775H478.815V0Z" fill="white"/>
</mask>
<g mask="url(#mask0_7211_414)">
<path d="M384.029 189.77C436.378 189.77 478.815 147.288 478.815 94.885C478.815 42.4815 436.378 0 384.029 0C331.68 0 289.243 42.4815 289.243 94.885C289.243 147.288 331.68 189.77 384.029 189.77Z" fill="url(#paint0_linear_7211_414)"/>
<path d="M413.918 100.575C409.098 104.575 408.923 110.66 409.103 114.475C409.602 126.655 409.508 147.475 393.969 158.12C393.969 158.12 371.053 174.08 351.633 150.425" stroke="#256799" stroke-width="5" stroke-miterlimit="10" stroke-linecap="round"/>
<path d="M363.261 44.9901C379.159 30.9901 402.335 30.3851 414.387 44.1151C426.44 57.845 422.804 80.74 406.895 94.725" stroke="#256799" stroke-width="5" stroke-miterlimit="10" stroke-linecap="round"/>
<path d="M358.391 37.2501C375.663 21.1151 405.152 19.7501 421.325 36.4701C438.073 53.765 434.232 82.67 413.923 100.53" stroke="#256799" stroke-width="5" stroke-miterlimit="10" stroke-linecap="round"/>
<path d="M1.72821 100.804H350.424L355.948 82.3345L362.412 117.274L370.5 68.5L375.928 111.979L380.628 100.094L387.835 100.015" stroke="#6F6F71" stroke-width="3" stroke-miterlimit="10"/>
<path d="M33.109 53.7785L34.0309 65.0635H33.109C32.1783 62.251 30.9755 60.133 29.5005 58.709C27.3757 56.6525 24.6452 55.624 21.3088 55.624C16.7608 55.624 13.3016 57.426 10.931 61.0295C8.94673 64.0705 7.95462 67.6915 7.95462 71.8925C7.95462 75.3025 8.61308 78.414 9.93011 81.2265C11.2471 84.039 12.9679 86.1045 15.0927 87.423C17.235 88.7235 19.4299 89.374 21.6776 89.374C22.9946 89.374 24.2676 89.207 25.4969 88.873C26.726 88.539 27.9113 88.047 29.0527 87.3965V77.0605C29.0527 75.2675 28.9122 74.0985 28.6313 73.5535C28.3679 72.991 27.9465 72.5695 27.367 72.288C26.805 71.9895 25.8041 71.84 24.3642 71.84V70.838H38.1926V71.84H37.5341C36.1644 71.84 35.225 72.297 34.7157 73.211C34.3646 73.8615 34.1889 75.1445 34.1889 77.0605V88.003C32.1695 89.093 30.1765 89.8925 28.2098 90.4025C26.2431 90.912 24.057 91.167 21.6513 91.167C14.7502 91.167 9.50865 88.952 5.92644 84.5225C3.23981 81.2 1.89648 77.368 1.89648 73.0265C1.89648 69.88 2.65155 66.865 4.1617 63.9825C5.95281 60.5545 8.41114 57.918 11.5368 56.0725C14.1532 54.543 17.2437 53.7785 20.8084 53.7785C22.1078 53.7785 23.2843 53.884 24.3379 54.0945C25.4091 54.3055 26.9192 54.7715 28.8683 55.492C29.8517 55.8615 30.5102 56.046 30.8438 56.046C31.1774 56.046 31.4584 55.8965 31.6867 55.5975C31.9325 55.281 32.0818 54.675 32.1344 53.7785H33.109ZM75.4368 90.3495H65.9017L53.8119 73.633C52.9163 73.668 52.1875 73.6855 51.6256 73.6855C51.3974 73.6855 51.1516 73.6855 50.8884 73.6855C50.6247 73.668 50.353 73.6505 50.0718 73.633V84.0215C50.0718 86.2715 50.3175 87.669 50.8095 88.214C51.4768 88.9875 52.4772 89.374 53.8119 89.374H55.2079V90.3495H39.9047V89.374H41.248C42.7581 89.374 43.8381 88.882 44.4878 87.8975C44.8565 87.3525 45.0409 86.0605 45.0409 84.0215V60.924C45.0409 58.674 44.7951 57.2765 44.3034 56.7315C43.6185 55.958 42.6001 55.5715 41.248 55.5715H39.9047V54.5955H52.9163C56.7093 54.5955 59.5014 54.877 61.2925 55.4395C63.1012 55.9845 64.6291 57.004 65.8758 58.498C67.1399 59.9745 67.7723 61.741 67.7723 63.798C67.7723 65.995 67.052 67.9025 65.612 69.5195C64.19 71.1365 61.9773 72.2795 58.9745 72.9475L66.3498 83.204C68.0355 85.5595 69.484 87.124 70.6957 87.8975C71.9075 88.671 73.4878 89.163 75.4368 89.374V90.3495ZM50.0718 71.9715C50.4054 71.9715 50.6951 71.9805 50.9408 71.998C51.1866 71.998 51.3889 71.998 51.5467 71.998C54.9532 71.998 57.517 71.26 59.2382 69.783C60.9764 68.3065 61.8455 66.426 61.8455 64.1405C61.8455 61.908 61.1432 60.0975 59.7387 58.709C58.3511 57.3025 56.5075 56.5995 54.2069 56.5995C53.1885 56.5995 51.8104 56.7665 50.0718 57.1005V71.9715ZM86.236 56.547V70.6795H94.0853C96.1222 70.6795 97.4833 70.372 98.1681 69.757C99.0811 68.948 99.5906 67.5245 99.696 65.4855H100.67V77.9305H99.696C99.4497 76.1905 99.204 75.074 98.9582 74.582C98.6421 73.967 98.1241 73.4835 97.4044 73.132C96.6841 72.7805 95.5778 72.6045 94.0853 72.6045H86.236V84.3905C86.236 85.9725 86.3064 86.9395 86.4468 87.291C86.5872 87.625 86.8334 87.8975 87.1845 88.1085C87.5357 88.302 88.203 88.3985 89.1864 88.3985H95.2446C97.2635 88.3985 98.73 88.258 99.643 87.9765C100.556 87.6955 101.434 87.1415 102.277 86.3155C103.366 85.2255 104.481 83.582 105.622 81.385H106.676L103.594 90.3495H76.0691V89.374H77.3333C78.1764 89.374 78.9751 89.172 79.7303 88.7675C80.2922 88.4865 80.6698 88.0645 80.8631 87.502C81.0734 86.9395 81.1788 85.788 81.1788 84.048V60.8185C81.1788 58.551 80.9505 57.1535 80.494 56.626C79.8622 55.923 78.8083 55.5715 77.3333 55.5715H76.0691V54.5955H103.594L103.989 62.427H102.962C102.593 60.546 102.18 59.254 101.724 58.551C101.285 57.8475 100.626 57.3115 99.7484 56.9425C99.0461 56.6785 97.8079 56.547 96.0348 56.547H86.236ZM139.153 54.5955L139.548 62.9805H138.547C138.354 61.504 138.09 60.449 137.757 59.8165C137.212 58.797 136.484 58.05 135.571 57.575C134.675 57.083 133.49 56.837 132.015 56.837H126.983V84.1535C126.983 86.3505 127.221 87.7215 127.695 88.2665C128.362 89.005 129.389 89.374 130.777 89.374H132.015V90.3495H116.869V89.374H118.134C119.644 89.374 120.715 88.917 121.347 88.003C121.733 87.4405 121.926 86.157 121.926 84.1535V56.837H117.633C115.965 56.837 114.78 56.96 114.077 57.206C113.164 57.54 112.383 58.1815 111.733 59.131C111.083 60.08 110.697 61.3635 110.574 62.9805H109.573L109.995 54.5955H139.153ZM171.946 54.5955L148.477 88.1875H163.122C165.369 88.1875 167.09 87.6955 168.284 86.711C169.496 85.7265 170.567 83.7315 171.498 80.7255L172.367 80.884L170.681 90.3495H141.602V89.374L164.518 56.7315H153.086C151.19 56.7315 149.812 56.9425 148.951 57.3645C148.108 57.7685 147.459 58.366 147.002 59.157C146.563 59.9305 146.159 61.3895 145.79 63.534H144.789L145.527 54.5955H171.946ZM190.541 89.374V90.3495H175.238V89.374H176.502C177.977 89.374 179.049 88.9435 179.716 88.082C180.137 87.5195 180.348 86.166 180.348 84.0215V60.924C180.348 59.1135 180.234 57.918 180.006 57.338C179.83 56.8985 179.47 56.5205 178.926 56.204C178.153 55.782 177.345 55.5715 176.502 55.5715H175.238V54.5955H190.541V55.5715H189.25C187.794 55.5715 186.731 56.002 186.064 56.8635C185.625 57.426 185.405 58.7795 185.405 60.924V84.0215C185.405 85.832 185.519 87.0275 185.748 87.6075C185.923 88.047 186.292 88.425 186.854 88.741C187.609 89.163 188.408 89.374 189.25 89.374H190.541ZM191.147 54.5955H200.84L222.676 81.411V60.792C222.676 58.5945 222.43 57.2235 221.938 56.6785C221.289 55.9405 220.261 55.5715 218.857 55.5715H217.618V54.5955H230.051V55.5715H228.787C227.276 55.5715 226.205 56.0285 225.573 56.9425C225.187 57.505 224.994 58.788 224.994 60.792V90.9295H224.046L200.498 62.1365V84.1535C200.498 86.3505 200.735 87.7215 201.209 88.2665C201.876 89.005 202.903 89.374 204.291 89.374H205.555V90.3495H193.122V89.374H194.361C195.889 89.374 196.968 88.917 197.6 88.003C197.987 87.4405 198.18 86.157 198.18 84.1535V59.289C197.144 58.076 196.354 57.2765 195.809 56.8895C195.283 56.503 194.501 56.1425 193.465 55.8085C192.956 55.6505 192.183 55.5715 191.147 55.5715V54.5955ZM263.95 53.7785L264.872 65.0635H263.95C263.019 62.251 261.817 60.133 260.342 58.709C258.217 56.6525 255.486 55.624 252.15 55.624C247.602 55.624 244.143 57.426 241.772 61.0295C239.788 64.0705 238.796 67.6915 238.796 71.8925C238.796 75.3025 239.454 78.414 240.771 81.2265C242.088 84.039 243.809 86.1045 245.934 87.423C248.076 88.7235 250.271 89.374 252.518 89.374C253.836 89.374 255.109 89.207 256.338 88.873C257.567 88.539 258.752 88.047 259.894 87.3965V77.0605C259.894 75.2675 259.753 74.0985 259.472 73.5535C259.209 72.991 258.787 72.5695 258.208 72.288C257.646 71.9895 256.645 71.84 255.205 71.84V70.838H269.034V71.84H268.375C267.005 71.84 266.066 72.297 265.557 73.211C265.206 73.8615 265.03 75.1445 265.03 77.0605V88.003C263.01 89.093 261.018 89.8925 259.051 90.4025C257.084 90.912 254.898 91.167 252.492 91.167C245.591 91.167 240.35 88.952 236.767 84.5225C234.081 81.2 232.738 77.368 232.738 73.0265C232.738 69.88 233.493 66.865 235.003 63.9825C236.794 60.5545 239.252 57.918 242.378 56.0725C244.994 54.543 248.085 53.7785 251.649 53.7785C252.949 53.7785 254.125 53.884 255.179 54.0945C256.25 54.3055 257.76 54.7715 259.709 55.492C260.693 55.8615 261.351 56.046 261.685 56.046C262.019 56.046 262.299 55.8965 262.528 55.5975C262.774 55.281 262.923 54.675 262.976 53.7785H263.95ZM281.097 56.547V70.6795H288.946C290.983 70.6795 292.344 70.372 293.029 69.757C293.942 68.948 294.452 67.5245 294.557 65.4855H295.532V77.9305H294.557C294.311 76.1905 294.065 75.074 293.819 74.582C293.503 73.967 292.985 73.4835 292.265 73.132C291.545 72.7805 290.439 72.6045 288.946 72.6045H281.097V84.3905C281.097 85.9725 281.168 86.9395 281.308 87.291C281.448 87.625 281.694 87.8975 282.046 88.1085C282.397 88.302 283.064 88.3985 284.048 88.3985H290.105C292.125 88.3985 293.591 88.258 294.504 87.9765C295.417 87.6955 296.295 87.1415 297.138 86.3155C298.227 85.2255 299.342 83.582 300.483 81.385H301.537L298.455 90.3495H270.93V89.374H272.194C273.038 89.374 273.836 89.172 274.591 88.7675C275.153 88.4865 275.531 88.0645 275.724 87.502C275.935 86.9395 276.04 85.788 276.04 84.048V60.8185C276.04 58.551 275.812 57.1535 275.355 56.626C274.723 55.923 273.669 55.5715 272.194 55.5715H270.93V54.5955H298.455L298.85 62.427H297.823C297.454 60.546 297.041 59.254 296.585 58.551C296.146 57.8475 295.488 57.3115 294.609 56.9425C293.907 56.6785 292.669 56.547 290.895 56.547H281.097ZM339.255 90.3495H329.72L317.63 73.633C316.735 73.668 316.006 73.6855 315.444 73.6855C315.216 73.6855 314.97 73.6855 314.707 73.6855C314.443 73.668 314.171 73.6505 313.89 73.633V84.0215C313.89 86.2715 314.136 87.669 314.628 88.214C315.295 88.9875 316.296 89.374 317.63 89.374H319.027V90.3495H303.723V89.374H305.067C306.577 89.374 307.656 88.882 308.306 87.8975C308.675 87.3525 308.859 86.0605 308.859 84.0215V60.924C308.859 58.674 308.613 57.2765 308.122 56.7315C307.437 55.958 306.419 55.5715 305.067 55.5715H303.723V54.5955H316.735C320.528 54.5955 323.32 54.877 325.111 55.4395C326.919 55.9845 328.447 57.004 329.694 58.498C330.958 59.9745 331.59 61.741 331.59 63.798C331.59 65.995 330.871 67.9025 329.431 69.5195C328.008 71.1365 325.795 72.2795 322.793 72.9475L330.168 83.204C331.854 85.5595 333.303 87.124 334.514 87.8975C335.726 88.671 337.306 89.163 339.255 89.374V90.3495ZM313.89 71.9715C314.224 71.9715 314.514 71.9805 314.759 71.998C315.005 71.998 315.207 71.998 315.365 71.998C318.772 71.998 321.336 71.26 323.056 69.783C324.795 68.3065 325.664 66.426 325.664 64.1405C325.664 61.908 324.962 60.0975 323.557 58.709C322.17 57.3025 320.326 56.5995 318.026 56.5995C317.007 56.5995 315.629 56.7665 313.89 57.1005V71.9715Z" fill="#256799"/>
<path d="M68.059 132.419C68.061 132.512 68.035 132.602 67.9841 132.679C67.9201 132.766 67.8282 132.828 67.7243 132.855C67.5615 132.907 67.3942 132.945 67.2248 132.969C66.7174 133.03 66.2039 133.03 65.6964 132.969C65.5271 132.945 65.3598 132.907 65.197 132.855C65.0931 132.828 65.0012 132.766 64.9372 132.679C64.8863 132.602 64.8603 132.512 64.8623 132.419V121.769H53.9687V132.419C53.9722 132.511 53.9482 132.602 53.8988 132.679C53.8333 132.764 53.7419 132.826 53.639 132.855C53.4762 132.907 53.3089 132.945 53.1396 132.969C52.8843 133.003 52.6276 133.018 52.3704 133.014C52.1166 133.017 51.8629 133.002 51.6112 132.969C51.4418 132.945 51.2745 132.907 51.1117 132.855C51.0078 132.828 50.9159 132.766 50.8519 132.679C50.801 132.602 50.775 132.512 50.777 132.419V109.374C50.7755 109.282 50.802 109.192 50.8519 109.114C50.9174 109.03 51.0088 108.968 51.1117 108.939C51.274 108.887 51.4413 108.85 51.6112 108.829C51.8629 108.797 52.1166 108.782 52.3704 108.784C52.6276 108.781 52.8843 108.796 53.1396 108.829C53.3094 108.85 53.4767 108.887 53.639 108.939C53.7419 108.968 53.8333 109.03 53.8988 109.114C53.9472 109.192 53.9717 109.283 53.9687 109.374V118.989H64.8873V109.374C64.8858 109.282 64.9123 109.192 64.9622 109.114C65.0276 109.03 65.1191 108.968 65.2219 108.939C65.3843 108.886 65.5516 108.85 65.7214 108.829C66.2289 108.769 66.7424 108.769 67.2498 108.829C67.4196 108.85 67.5865 108.887 67.7493 108.939C67.8522 108.968 67.9436 109.03 68.009 109.114C68.059 109.192 68.0855 109.282 68.084 109.374L68.059 132.419Z" fill="#838385"/>
<path d="M81.2003 115.73C86.0552 115.73 89.5565 119.415 89.5565 124.255C89.5565 130.405 85.0263 133.36 81.1703 133.36C80.0455 133.378 78.9286 133.171 77.8857 132.749C76.8428 132.327 75.8953 131.7 75.0996 130.904C74.3035 130.109 73.6756 129.161 73.2531 128.117C72.8305 127.074 72.6217 125.956 72.6392 124.83C72.6392 118.705 77.4542 115.73 81.2003 115.73ZM77.4891 112.05C76.9602 112.019 76.4632 111.786 76.1016 111.398C75.7395 111.011 75.5407 110.499 75.5457 109.968C75.5512 109.438 75.7599 108.93 76.1291 108.549C76.4982 108.169 76.9997 107.945 77.5291 107.925C78.058 107.956 78.555 108.189 78.9166 108.576C79.2788 108.964 79.4776 109.476 79.4726 110.007C79.4671 110.537 79.2583 111.045 78.8892 111.425C78.5201 111.805 78.0186 112.03 77.4891 112.05ZM80.7407 117.05C78.548 117.05 76.5501 119.195 76.5501 123.65C76.5501 128.455 78.573 131.975 81.5449 131.975C83.7376 131.975 85.6356 130.395 85.6356 125.125C85.6456 120.545 83.9074 117.065 80.7407 117.065V117.05ZM84.7016 112.05C84.4369 112.05 84.1747 111.997 83.9299 111.895C83.6857 111.793 83.4639 111.642 83.2781 111.453C83.0923 111.264 82.9459 111.041 82.847 110.795C82.7487 110.548 82.6997 110.285 82.7037 110.02C82.6982 109.746 82.7476 109.475 82.8485 109.221C82.9489 108.967 83.0993 108.736 83.2906 108.541C83.4819 108.346 83.7101 108.19 83.9614 108.085C84.2131 107.979 84.4833 107.925 84.7566 107.925C85.286 107.959 85.7825 108.195 86.1421 108.585C86.5022 108.975 86.698 109.49 86.689 110.021C86.68 110.552 86.4668 111.059 86.0937 111.437C85.721 111.815 85.2171 112.035 84.6866 112.05H84.7016Z" fill="#838385"/>
<path d="M100.955 132.904H91.964V131.799C94.2866 131.569 94.5113 131.38 94.5113 128.945V120.945C94.5113 118.545 94.3565 118.445 92.2287 118.13V117.13C94.1587 116.857 96.0467 116.341 97.8478 115.594V119.759C99.2464 117.669 100.8 115.7 102.638 115.7C104.041 115.7 104.886 116.589 104.886 117.604C104.867 118.075 104.728 118.534 104.483 118.936C104.237 119.337 103.893 119.669 103.482 119.899C103.328 120.007 103.14 120.057 102.953 120.039C102.765 120.022 102.59 119.938 102.458 119.804C101.874 119.239 101.414 118.804 100.735 118.804C100.056 118.804 98.657 119.86 97.8478 121.71V128.87C97.8478 131.335 98.0526 131.51 100.93 131.755L100.955 132.904Z" fill="#838385"/>
<path d="M111.469 127.285C110.65 127.955 110.315 128.635 110.315 129.08C110.315 129.75 110.974 130.515 112.637 130.515C114.006 130.515 115.634 130.485 116.893 130.485C119.305 130.485 122.462 131.31 122.462 135.065C122.462 139.065 117.692 142.75 112.642 142.75C108.232 142.75 105.929 140.25 105.865 138.04C105.866 137.63 105.957 137.225 106.129 136.854C106.302 136.482 106.552 136.151 106.863 135.885C107.84 134.971 108.864 134.108 109.93 133.3C108.764 132.977 107.754 132.243 107.083 131.235C106.764 130.719 106.591 130.127 106.584 129.52C107.997 128.971 109.24 128.057 110.185 126.87L111.469 127.285ZM113.287 127.665C109.616 127.665 106.714 125.475 106.714 121.93C106.714 117.64 110.6 115.635 113.641 115.635C114.955 115.642 116.246 115.971 117.402 116.595C119.122 116.576 120.835 116.387 122.517 116.03L122.737 116.365C122.507 116.99 121.923 118.085 121.333 118.44C120.749 118.44 119.53 118.29 119.001 118.25C119.712 119.239 120.085 120.432 120.065 121.65C120.065 125.73 116.633 127.665 113.287 127.665ZM114.086 133.415C112.213 133.415 111.359 133.645 110.694 134.2C109.696 135.01 109.011 136.085 109.011 137.13C109.011 139.205 111.124 140.765 114.111 140.765C117.607 140.765 119.605 138.99 119.605 136.63C119.638 136.047 119.487 135.468 119.174 134.975C118.861 134.482 118.403 134.099 117.862 133.88C116.893 133.49 115.649 133.415 114.086 133.415ZM113.297 116.915C111.683 116.915 110.225 118.445 110.225 121.415C110.225 124.385 111.628 126.415 113.661 126.415C115.3 126.355 116.658 124.915 116.658 121.915C116.663 119.035 115.365 116.895 113.297 116.895V116.915Z" fill="#838385"/>
<path d="M137.766 129.585C135.359 132.695 132.632 133.361 131.348 133.361C126.633 133.361 123.811 129.566 123.811 125.171C123.785 122.702 124.691 120.314 126.348 118.485C127.058 117.657 127.931 116.985 128.912 116.511C129.894 116.037 130.963 115.771 132.052 115.73C133.614 115.758 135.103 116.394 136.204 117.505C137.304 118.615 137.927 120.111 137.941 121.675C137.911 122.415 137.811 122.81 137.232 122.955C136.478 123.115 131.533 123.455 127.162 123.595C127.097 128.495 130.054 130.596 132.756 130.596C134.409 130.551 135.981 129.873 137.147 128.701L137.766 129.585ZM131.168 117.205C129.465 117.205 127.832 118.865 127.352 121.93C129.375 121.93 131.378 121.93 133.501 121.815C134.16 121.815 134.385 121.64 134.385 121.055C134.425 119.055 133.176 117.205 131.168 117.205Z" fill="#838385"/>
<path d="M149.164 132.904H140.199V131.799C142.521 131.569 142.746 131.38 142.746 128.945V120.945C142.746 118.545 142.591 118.445 140.463 118.13V117.13C142.393 116.857 144.281 116.341 146.083 115.594V119.759C147.481 117.669 149.034 115.7 150.873 115.7C152.276 115.7 153.12 116.589 153.12 117.604C153.102 118.076 152.962 118.535 152.716 118.937C152.469 119.339 152.123 119.67 151.712 119.899C151.56 120.001 151.377 120.047 151.195 120.03C151.013 120.013 150.843 119.933 150.713 119.804C150.128 119.239 149.669 118.804 148.989 118.804C148.31 118.804 146.912 119.86 146.103 121.71V128.87C146.103 131.335 146.307 131.51 149.184 131.755L149.164 132.904Z" fill="#838385"/>
<path d="M166.821 133.36C166.125 133.35 165.456 133.089 164.938 132.625C164.487 132.167 164.168 131.595 164.014 130.97C162.515 131.97 160.647 133.36 159.553 133.36C158.934 133.362 158.319 133.241 157.746 133.005C157.172 132.769 156.651 132.422 156.211 131.984C155.772 131.546 155.423 131.026 155.185 130.453C154.947 129.88 154.824 129.266 154.823 128.645C154.823 126.755 155.822 125.595 157.905 124.86C160.203 124.055 163.08 123.08 163.924 122.36V121.455C163.924 118.89 162.67 117.415 160.757 117.415C160.422 117.411 160.09 117.485 159.789 117.633C159.488 117.781 159.226 117.997 159.024 118.265C158.553 119.035 158.214 119.881 158.025 120.765C157.978 121.043 157.829 121.294 157.607 121.468C157.386 121.643 157.108 121.728 156.826 121.71C156.374 121.68 155.948 121.49 155.623 121.174C155.298 120.858 155.096 120.436 155.053 119.985C155.053 119.425 155.553 118.985 156.322 118.415C157.531 117.56 159.738 116.205 161.896 115.75C163.085 115.728 164.249 116.093 165.213 116.79C166.596 117.93 167.18 119.29 167.18 121.245V128.445C167.18 130.205 167.815 130.725 168.484 130.725C168.954 130.701 169.412 130.563 169.818 130.325L170.207 131.43L166.821 133.36ZM157.635 112.05C157.107 112.019 156.61 111.786 156.248 111.398C155.886 111.011 155.687 110.499 155.692 109.968C155.697 109.438 155.906 108.93 156.275 108.549C156.645 108.169 157.146 107.945 157.675 107.925C158.204 107.956 158.701 108.189 159.063 108.576C159.425 108.964 159.624 109.476 159.619 110.007C159.613 110.537 159.405 111.045 159.036 111.425C158.666 111.805 158.165 112.03 157.635 112.05ZM163.924 123.75C163.115 124.165 161.496 124.885 160.642 125.25C159.249 125.885 158.41 126.6 158.41 127.99C158.385 128.357 158.434 128.727 158.555 129.075C158.677 129.423 158.868 129.744 159.116 130.016C159.364 130.288 159.665 130.508 160 130.66C160.336 130.813 160.699 130.896 161.067 130.905C162.134 130.845 163.147 130.41 163.924 129.675V123.75ZM164.848 112.05C164.583 112.05 164.321 111.997 164.076 111.895C163.832 111.793 163.61 111.642 163.424 111.453C163.239 111.264 163.092 111.041 162.993 110.795C162.895 110.548 162.846 110.285 162.85 110.02C162.845 109.746 162.894 109.475 162.995 109.221C163.095 108.967 163.246 108.736 163.437 108.541C163.628 108.346 163.856 108.19 164.108 108.085C164.359 107.979 164.63 107.925 164.903 107.925C165.432 107.959 165.929 108.195 166.288 108.585C166.649 108.975 166.844 109.49 166.835 110.021C166.826 110.552 166.613 111.059 166.24 111.437C165.867 111.815 165.363 112.035 164.833 112.05H164.848Z" fill="#838385"/>
<path d="M178.913 132.88C178.418 133.163 177.868 133.334 177.3 133.38C174.803 133.38 173.409 131.92 173.409 128.805V117.805H170.822L170.657 117.35L171.701 116.205H173.414V113.02C174.238 112.235 175.472 111.205 176.306 110.415L176.86 110.535C176.79 112.035 176.746 114.2 176.755 116.205H180.986C181.143 116.46 181.206 116.763 181.162 117.059C181.118 117.356 180.971 117.627 180.746 117.825H176.75V127.48C176.75 130.535 177.964 131.065 178.903 131.065C179.678 131.041 180.438 130.848 181.131 130.5L181.476 131.555L178.913 132.88Z" fill="#838385"/>
<path d="M196.565 129.585C194.157 132.695 191.43 133.361 190.147 133.361C185.436 133.361 182.614 129.566 182.614 125.171C182.586 122.702 183.491 120.314 185.147 118.485C185.857 117.658 186.73 116.986 187.712 116.511C188.693 116.037 189.762 115.771 190.851 115.73C192.414 115.756 193.905 116.392 195.005 117.503C196.106 118.613 196.731 120.111 196.745 121.675C196.71 122.415 196.61 122.81 196.03 122.955C195.276 123.115 190.331 123.455 185.961 123.595C185.896 128.495 188.853 130.596 191.555 130.596C193.207 130.551 194.779 129.873 195.945 128.701L196.565 129.585ZM189.967 117.205C188.264 117.205 186.63 118.865 186.151 121.93C188.179 121.93 190.182 121.93 192.304 121.815C192.959 121.815 193.188 121.64 193.188 121.055C193.223 119.055 191.98 117.205 189.967 117.205Z" fill="#838385"/>
<path d="M209.047 120.785C208.308 118.5 207.264 117.035 205.051 117.035C204.74 117.026 204.431 117.083 204.143 117.201C203.855 117.319 203.595 117.496 203.379 117.721C203.163 117.945 202.997 118.212 202.89 118.505C202.783 118.797 202.738 119.109 202.758 119.42C202.758 121 203.832 121.755 205.93 122.72C209.162 124.245 210.875 125.41 210.875 128.01C210.875 131.56 207.608 133.36 204.556 133.36C202.97 133.357 201.406 132.987 199.986 132.28C199.801 131.22 199.462 129.035 199.317 127.78L200.446 127.585C201.145 130.01 202.519 132.035 205.141 132.035C205.478 132.055 205.815 132.005 206.13 131.887C206.447 131.77 206.735 131.588 206.976 131.352C207.218 131.117 207.408 130.834 207.534 130.521C207.66 130.208 207.719 129.872 207.708 129.535C207.708 127.92 206.764 127.035 204.711 126.035C202.084 124.76 199.871 123.535 199.871 120.71C199.871 117.885 202.244 115.71 205.895 115.71C207.151 115.751 208.399 115.919 209.621 116.21C209.736 117.14 210.016 119.54 210.196 120.475L209.047 120.785Z" fill="#838385"/>
<path d="M227.642 129.585C225.235 132.695 222.508 133.361 221.224 133.361C216.509 133.361 213.687 129.566 213.687 125.171C213.661 122.702 214.567 120.314 216.224 118.485C216.934 117.657 217.807 116.985 218.789 116.511C219.77 116.037 220.839 115.771 221.928 115.73C223.49 115.758 224.98 116.394 226.08 117.505C227.18 118.615 227.803 120.111 227.817 121.675C227.787 122.415 227.687 122.81 227.108 122.955C226.354 123.115 221.404 123.455 217.038 123.595C216.974 128.495 219.93 130.596 222.633 130.596C224.284 130.55 225.856 129.872 227.023 128.701L227.642 129.585ZM221.019 117.205C219.316 117.205 217.683 118.865 217.203 121.93C219.201 121.93 221.229 121.93 223.352 121.815C224.011 121.815 224.236 121.64 224.236 121.055C224.276 119.055 223.027 117.205 221.019 117.205Z" fill="#838385"/>
<path d="M239.016 132.904H230.05V131.799C232.372 131.569 232.597 131.38 232.597 128.945V120.945C232.597 118.545 232.442 118.445 230.315 118.13V117.13C232.245 116.857 234.133 116.341 235.934 115.594V119.759C237.332 117.669 238.886 115.7 240.724 115.7C242.127 115.7 242.971 116.589 242.971 117.604C242.952 118.076 242.813 118.534 242.566 118.936C242.319 119.337 241.974 119.669 241.563 119.899C241.411 120.001 241.229 120.047 241.046 120.03C240.865 120.013 240.694 119.933 240.564 119.804C239.98 119.239 239.52 118.804 238.841 118.804C238.161 118.804 236.763 119.86 235.954 121.71V128.87C235.954 131.335 236.158 131.51 239.035 131.755L239.016 132.904Z" fill="#838385"/>
<path d="M262.846 117.26C260.793 117.54 260.523 117.865 259.569 120.055C258.3 123.095 256.173 128.055 254.145 133.32H252.956C251.303 128.89 249.46 124.375 247.676 119.94C246.837 117.84 246.518 117.57 244.545 117.26V116.205H252.616V117.28C250.618 117.56 250.494 117.835 251.073 119.4C252.022 122.02 253.57 125.98 254.569 128.44C255.803 125.37 257.067 122.22 257.906 119.75C258.505 118.02 258.405 117.545 255.908 117.28V116.205H262.861L262.846 117.26Z" fill="#838385"/>
<path d="M264.104 132.905V131.8C266.432 131.565 266.692 131.38 266.692 128.775V121.025C266.692 118.63 266.562 118.48 264.374 118.13V117.13C266.308 116.832 268.205 116.329 270.033 115.63V128.745C270.033 131.33 270.278 131.535 272.695 131.77V132.875L264.104 132.905ZM268.13 112.205C267.568 112.19 267.033 111.961 266.635 111.564C266.237 111.167 266.005 110.633 265.987 110.07C265.983 109.782 266.037 109.496 266.145 109.228C266.253 108.961 266.412 108.718 266.615 108.513C266.818 108.308 267.059 108.146 267.325 108.035C267.592 107.925 267.877 107.869 268.165 107.87C268.448 107.873 268.727 107.932 268.986 108.045C269.245 108.158 269.479 108.322 269.674 108.527C269.868 108.733 270.019 108.975 270.118 109.24C270.216 109.505 270.261 109.788 270.248 110.07C270.245 110.633 270.022 111.173 269.626 111.572C269.229 111.971 268.693 112.199 268.13 112.205Z" fill="#838385"/>
<path d="M288.958 129.435C287.275 131.695 284.733 133.36 282.465 133.36C277.57 133.36 274.683 129.44 274.683 125.36C274.683 122.39 276.002 119.86 278.524 117.945C280.218 116.607 282.288 115.838 284.443 115.745C285.687 115.685 286.915 116.037 287.939 116.745C288.14 116.862 288.306 117.032 288.416 117.237C288.527 117.441 288.58 117.672 288.569 117.905C288.569 118.84 287.57 119.69 287.14 119.69C286.936 119.69 286.766 119.605 286.396 119.3C285.365 118.284 283.991 117.69 282.545 117.635C280.223 117.635 278.095 119.635 278.095 123.635C278.065 128.88 281.686 130.605 283.784 130.605C285.372 130.605 286.636 130.185 288.314 128.605L288.958 129.435Z" fill="#838385"/>
<path d="M304.937 129.585C302.529 132.695 299.802 133.361 298.523 133.361C293.808 133.361 290.986 129.566 290.986 125.171C290.958 122.702 291.863 120.314 293.519 118.485C294.228 117.658 295.101 116.986 296.083 116.511C297.065 116.037 298.134 115.771 299.223 115.73C300.786 115.756 302.276 116.392 303.377 117.503C304.478 118.613 305.103 120.111 305.116 121.675C305.082 122.415 304.982 122.81 304.402 122.955C303.653 123.115 298.703 123.455 294.338 123.595C294.268 128.495 297.225 130.596 299.927 130.596C301.579 130.551 303.151 129.873 304.317 128.701L304.937 129.585ZM298.339 117.205C296.635 117.205 295.002 118.865 294.528 121.93C296.55 121.93 298.553 121.93 300.676 121.815C301.33 121.815 301.56 121.64 301.56 121.055C301.595 119.055 300.351 117.205 298.339 117.205Z" fill="#838385"/>
</g>
</g>
<defs>
<linearGradient id="paint0_linear_7211_414" x1="289.238" y1="94.885" x2="478.815" y2="94.885" gradientUnits="userSpaceOnUse">
<stop offset="0.075" stop-color="white" stop-opacity="0"/>
<stop offset="0.375" stop-color="#CDCDCD"/>
<stop offset="0.63" stop-color="#A9A9A9"/>
<stop offset="0.895" stop-color="#828282"/>
</linearGradient>
<clipPath id="clip0_7211_414">
<rect width="479" height="190" fill="white"/>
</clipPath>
</defs>
</svg>
